<svg xmlns="http://www.w3.org/2000/svg" viewBox="0 0 3333.3333 1360.1333" height="1360.133" width="3333.333"><defs><clipPath id="a"><path d="M0 1020.102h2500V0H0z"/></clipPath></defs><g clip-path="url(#a)" transform="matrix(1.33333 0 0 -1.33333 0 1360.133)"><path d="M324.285 865.383c-9.457 0-17.12-7.664-17.125-17.12.004-9.458 7.668-17.12 17.125-17.125 9.456.005 17.12 7.667 17.12 17.124 0 9.457-7.664 17.12-17.12 17.12" fill="#72DA38"/><path d="M324.285 865.383c-9.457 0-17.12-7.664-17.125-17.12.004-9.458 7.668-17.12 17.125-17.125 9.456.005 17.12 7.667 17.12 17.124 0 9.457-7.664 17.12-17.12 17.12z" fill="none" stroke="#72DA38" stroke-miterlimit="10"/><path d="M2419.03 380.037h-249.736v118.166h249.737zM2175.896 715.56v-46.398h243.136V544.616h-296.125V333.654h342.54V715.56zM2061.01 334.04l-.02 210.576h-57.38v108.56h-47.38v-108.56h-147.167V752.15h-46.404V334.036h46.403v164.168h203.348V334.04zM138.33 364.44c-9.457 0-17.12-7.663-17.125-17.12.004-9.457 7.668-17.12 17.125-17.125 9.457.006 17.12 7.668 17.12 17.125s-7.663 17.12-17.12 17.12" fill="#72DA38"/><path d="M138.33 364.44c-9.457 0-17.12-7.663-17.125-17.12.004-9.457 7.668-17.12 17.125-17.125 9.457.006 17.12 7.668 17.12 17.125s-7.663 17.12-17.12 17.12z" fill="none" stroke="#72DA38" stroke-miterlimit="10"/><path d="M564.292 188.965c-9.457 0-17.12-7.664-17.125-17.12.005-9.458 7.668-17.12 17.125-17.124 9.457.005 17.12 7.667 17.12 17.124 0 9.457-7.663 17.12-17.12 17.12" fill="#72DA38"/><path d="M564.292 188.965c-9.457 0-17.12-7.664-17.125-17.12.005-9.458 7.668-17.12 17.125-17.124 9.457.005 17.12 7.667 17.12 17.124 0 9.457-7.663 17.12-17.12 17.12z" fill="none" stroke="#72DA38" stroke-miterlimit="10"/><path d="M1658.434 380.037h-247.54v118.166h247.54zm-712.926 0H695.77v118.166H945.51zm470.496 335.524v-46.398h242.43V544.616l-557.7-.01.016 207.545h-46.398v-206.5h-62.43v169.91h-289.55v-46.398h243.136V544.616H649.382V333.654h342.54V497.24h62.43V333.648h229.752v46.395h-183.38l.01 118.166h262.282V333.653h342.54V715.56h-289.55z" fill="#72DA38"/><path d="M564.3 115.34c-31.208.014-56.5 25.3-56.513 56.51.013 31.21 25.305 56.502 56.514 56.502 31.206 0 56.493-25.293 56.493-56.502 0-31.21-25.287-56.496-56.492-56.51M138.338 290.813c-31.21.017-56.5 25.304-56.514 56.51.013 31.208 25.305 56.5 56.514 56.5 31.205 0 56.492-25.292 56.492-56.5 0-31.206-25.288-56.493-56.493-56.51m129.44 557.454c.013 31.21 25.305 56.5 56.51 56.5 31.21 0 56.496-25.29 56.496-56.5 0-31.205-25.287-56.492-56.496-56.505-31.205.013-56.497 25.3-56.51 56.505m324.836-576.593v49.646L456.22 509.104 588.212 657.3h40.785v57.665h-66.482L423.655 556.26l-69.38 99.236-1.875 92.885c43.65 12.268 75.656 52.318 75.656 99.895 0 57.312-46.447 103.758-103.763 103.758-57.31 0-103.756-46.446-103.783-103.758.02-46.736 30.903-86.227 73.367-99.238V638.76l90.84-127.455-122.283-134.113H237.72c-12.824 42.748-52.45 73.898-99.382 73.898-57.31 0-103.756-46.445-103.783-103.758.027-57.322 46.473-103.763 103.783-103.787 48.53.02 89.26 33.324 100.607 78.33h49.43l130.698 143.72L535.638 304.07l.822-32.263c-43.78-12.166-75.92-52.287-75.942-99.95.026-57.324 46.47-103.765 103.783-103.788 57.316.022 103.763 46.463 103.763 103.788 0 47.49-31.907 87.492-75.45 99.816" fill="#72DA38"/></g></svg>